<?xml version="1.0" encoding="UTF-8" standalone="no"?>
<!DOCTYPE svg PUBLIC "-//W3C//DTD SVG 20010904//EN"
              "http://www.w3.org/TR/2001/REC-SVG-20010904/DTD/svg10.dtd">

<svg xmlns="http://www.w3.org/2000/svg"
     width="9.25556in" height="5.6in"
     viewBox="0 0 833 504">
  <path id="Selección"
        fill="none" stroke="black" stroke-width="1"
        d="M 349.453 269.659 L 349.702 269.695 L 350.022 270.253 L 349.755 270.686 L 349.453 269.659 Z M 313.192 230.859 L 313.886 231.66 L 314.183 231.548 L 314.343 231.732 L 314.349 232.265 L 314.699 232.936 L 314.539 234.538 L 314.254 234.532 L 313.844 233.28 L 313.204 232.586 L 313.192 230.859 Z M 310.332 229.643 L 311.169 230.195 L 313.299 232.9 L 313.732 233.577 L 313.761 234.395 L 313.53 234.49 L 311.928 231.441 L 310.255 229.904 L 310.332 229.643 Z M 310.006 228.279 L 311.062 229.014 L 311.187 229.353 L 310.202 228.878 L 310.006 228.279 Z M 297.203 210.006 L 297.814 210.077 L 297.814 210.077 L 298.087 210.303 L 298.01 210.902 L 297.785 211.068 L 298.841 211.94 L 298.633 211.264 L 299.09 210.884 L 298.989 210.605 L 298.805 210.771 L 298.532 210.623 L 297.986 209.555 L 297.974 209.116 L 297.974 209.116 L 297.885 208.191 L 298.057 208.078 L 298.2 209.187 L 298.431 209.288 L 298.728 208.73 L 299.197 209.27 L 299.274 209.733 L 299.558 209.686 L 299.529 210.166 L 299.731 210.374 L 301.469 209.365 L 302.228 208.671 L 303.415 208.327 L 303.48 206.85 L 303.759 206.334 L 306.185 205.752 L 307.407 203.462 L 308.511 203.136 L 308.339 201.659 L 310.19 199.357 L 310.374 198.301 L 310.374 198.301 L 313.269 198.17 L 313.672 198.396 L 313.744 200.116 L 314.111 200.259 L 314.835 200.104 L 315.458 201.487 L 315.221 202.827 L 315.517 203.314 L 315.221 204.506 L 315.417 205.153 L 316.253 205.693 L 316.295 206.808 L 318.14 209.786 L 318.863 212.563 L 321.124 213.233 L 323.016 213.417 L 324.417 213.833 L 326.131 216.728 L 326.481 218.644 L 327.751 220.299 L 327.751 220.299 L 327.786 220.697 L 328.219 220.602 L 328.314 221.035 L 327.602 221.492 L 326.576 222.803 L 326.932 223.23 L 327.211 223.182 L 327.252 223.586 L 326.463 225.49 L 326.416 228.528 L 326.113 229.697 L 326.707 230.058 L 326.991 231.138 L 327.436 231.524 L 328.148 232.93 L 327.952 233.79 L 328.664 234.354 L 328.979 234.093 L 330.343 234.229 L 330.877 235.778 L 331.66 235.956 L 332.378 238.608 L 332.716 238.726 L 333.055 238.477 L 333.179 238.625 L 333.66 241.07 L 334.241 241.906 L 334.591 243.063 L 335.084 242.962 L 335.499 243.253 L 335.908 242.927 L 336.697 242.814 L 338.352 241.55 L 338.75 240.933 L 341.147 241.633 L 342.007 242.203 L 342.541 243.016 L 343.182 243.17 L 343.271 243.805 L 344.303 245.151 L 344.35 246.456 L 344.961 247.014 L 344.813 247.548 L 345.282 249.085 L 345.703 249.719 L 346.077 251.464 L 346.718 252.182 L 347.257 253.356 L 348.278 254.335 L 348.539 256.002 L 349.162 257.735 L 349.002 258.286 L 349.441 259.319 L 350.164 260.108 L 350.242 261.448 L 350.598 262.208 L 351.808 262.291 L 352.312 261.935 L 352.668 261.976 L 353.926 263.27 L 353.926 263.27 L 353.433 263.632 L 353.101 265.655 L 352.099 266.901 L 351.903 267.506 L 352.17 268.277 L 352.947 269.048 L 353.071 269.837 L 353.309 270.051 L 353.445 271.261 L 353.232 271.789 L 351.179 271.451 L 349.933 270.715 L 349.933 270.715 L 350.07 270.11 L 349.18 269.143 L 349.328 268.793 L 349.767 268.585 L 349.358 268.247 L 349.037 268.663 L 349.346 269.79 L 349.666 270.092 L 349.334 271.089 L 349.642 272.086 L 349.423 272.418 L 347.216 268.971 L 345.454 267.268 L 344.398 266.616 L 341.894 263.549 L 339.124 260.831 L 339.385 260.636 L 340.067 261.389 L 340.114 261.193 L 339.254 260.511 L 338.934 260.636 L 338.821 260.968 L 338.608 260.772 L 338.667 260.363 L 338.252 260.066 L 337.706 259.087 L 337.89 258.844 L 337.148 257.681 L 335.635 256.198 L 335.683 255.99 L 334.858 255.29 L 334.478 254.638 L 332.96 253.487 L 333.203 253.19 L 331.898 251.173 L 331.761 250.449 L 327.3 246.32 L 327.846 246.439 L 328.03 246.225 L 327.763 246.047 L 327.828 245.573 L 327.496 245.507 L 327.389 245.798 L 327.068 245.923 L 324.802 244.119 L 323.972 243.917 L 320.981 241.568 L 318.229 239.877 L 318.365 239.545 L 318.733 239.954 L 320.596 240.963 L 320.863 241.402 L 321.456 241.479 L 321.759 241.96 L 322.126 241.918 L 322.571 242.577 L 322.868 242.499 L 322.548 242.149 L 322.589 241.734 L 323.01 241.604 L 323.034 241.366 L 322.862 240.666 L 321.984 239.468 L 321.225 239.486 L 321.29 240.31 L 320.626 240.453 L 319.979 239.604 L 319.623 239.919 L 319.006 239.806 L 318.899 239.254 L 317.932 238.37 L 316.686 237.854 L 316.538 237.581 L 316.194 237.818 L 315.553 237.522 L 315.084 236.893 L 315.126 236.211 L 314.301 235.261 L 314.669 235.095 L 315.387 235.789 L 315.796 235.089 L 315.44 234.822 L 315.339 234.366 L 315.167 234.383 L 315.215 233.879 L 315.494 233.571 L 315.072 233.399 L 315.049 233.102 L 315.357 232.722 L 315.405 232.26 L 314.794 231.856 L 314.628 230.741 L 314.325 230.325 L 313.405 229.72 L 313.394 230.029 L 312.871 229.934 L 311.75 228.925 L 311.566 228.439 L 310.593 228.439 L 310.659 227.768 L 309.917 227.424 L 309.585 227.923 L 309.751 228.308 L 309.543 228.652 L 308.404 227.377 L 305.2 225.775 L 305.509 225.401 L 305.284 225.111 L 304.5 225.318 L 303.599 223.942 L 304.002 223.153 L 303.741 222.779 L 303.035 223.034 L 302.798 222.465 L 302.044 222.411 L 301.801 222.548 L 301.943 222.904 L 301.801 223.325 L 302.086 223.485 L 301.682 224.132 L 301.386 224.268 L 301.35 223.918 L 301.125 223.829 L 301.249 223.568 L 300.769 223.384 L 300.063 223.503 L 300.229 223.983 L 299.748 224.12 L 298.663 222.856 L 299.357 222.755 L 299.606 222.494 L 299.636 222.02 L 300.187 222.536 L 300.715 222.281 L 300.852 221.693 L 301.255 221.782 L 301.528 221.492 L 301.326 220.714 L 300.674 220.691 L 300.069 221.07 L 299.553 222.156 L 298.621 221.871 L 298.526 222.18 L 298.152 222.115 L 297.933 221.45 L 296.912 220.519 L 296.634 220.786 L 297.583 221.474 L 297.63 221.919 L 296.681 221.32 L 294.978 221.011 L 294.872 220.815 L 296.082 220.976 L 296.123 219.813 L 295.827 219.789 L 294.872 219.006 L 294.231 219.172 L 294.011 218.763 L 294.112 217.185 L 294.255 217.131 L 294.047 216.49 L 293.78 216.395 L 293.756 215.998 L 294.172 214.734 L 294.379 214.758 L 294.391 214.266 L 295.661 212.237 L 296.076 210.807 L 296.693 210.148 L 296.841 210.214 L 296.717 210.801 L 296.206 210.967 L 295.856 212.575 L 296.106 212.901 L 296.29 212.8 L 296.515 212.219 L 296.313 211.875 L 296.414 211.715 L 296.616 212.017 L 297.096 210.997 L 297.203 210.006 Z" />
</svg>
