<?xml version="1.0" encoding="UTF-8" standalone="no"?>
<!DOCTYPE svg PUBLIC "-//W3C//DTD SVG 20010904//EN"
              "http://www.w3.org/TR/2001/REC-SVG-20010904/DTD/svg10.dtd">

<svg xmlns="http://www.w3.org/2000/svg"
     width="9.25556in" height="5.6in"
     viewBox="0 0 833 504">
  <path id="Selección"
        fill="none" stroke="black" stroke-width="1"
        d="M 354.00,271.00
           C 345.60,270.71 344.68,266.13 339.07,260.17
             339.07,260.17 333.51,253.36 333.51,253.36
             333.51,253.36 328.47,248.88 328.47,248.88
             328.47,248.88 323.41,243.18 323.41,243.18
             323.41,243.18 316.86,237.78 316.86,237.78
             314.17,234.76 314.20,232.73 310.86,229.63
             306.63,225.71 295.47,220.93 293.95,217.70
             291.59,212.69 297.98,210.27 300.96,207.67
             303.15,205.78 304.17,204.24 306.00,202.19
             307.52,200.48 309.41,198.42 311.97,198.87
             315.50,199.50 316.94,204.34 318.66,207.00
             322.89,213.55 325.98,213.19 327.41,216.27
             327.41,216.27 329.98,232.00 329.98,232.00
             333.84,240.44 339.45,239.51 343.72,244.14
             347.25,247.96 346.34,251.31 349.28,256.98
             351.75,261.76 354.19,262.66 358.00,266.00
             358.00,266.00 354.00,271.00 354.00,271.00 Z" />
</svg>
